<mxfile host="app.diagrams.net" modified="2022-03-28T07:54:21.636Z" agent="5.0 (X11; Linux x86_64) AppleWebKit/537.36 (KHTML, like Gecko) Chrome/99.0.4844.83 Safari/537.36" etag="LNa1FaXbwozJ_-1hZlbF" version="17.1.5" type="github">
  <diagram id="U0bZ6pBTpM0miLVOKGS7" name="Page-1">
    <mxGraphModel dx="782" dy="481" grid="1" gridSize="10" guides="1" tooltips="1" connect="1" arrows="1" fold="1" page="1" pageScale="1" pageWidth="850" pageHeight="1100" math="0" shadow="0">
      <root>
        <mxCell id="0" />
        <mxCell id="1" parent="0" />
        <mxCell id="-nGJAd8UvBnzbiaQS2O5-1" value="Nurse - Entitty" style="rounded=0;whiteSpace=wrap;html=1;" vertex="1" parent="1">
          <mxGeometry x="40" y="40" width="120" height="40" as="geometry" />
        </mxCell>
        <mxCell id="-nGJAd8UvBnzbiaQS2O5-2" value="Patient - Entitty" style="rounded=0;whiteSpace=wrap;html=1;" vertex="1" parent="1">
          <mxGeometry x="240" y="40" width="120" height="40" as="geometry" />
        </mxCell>
        <mxCell id="-nGJAd8UvBnzbiaQS2O5-3" value="Attendent - Entitty" style="rounded=0;whiteSpace=wrap;html=1;" vertex="1" parent="1">
          <mxGeometry x="440" y="40" width="120" height="40" as="geometry" />
        </mxCell>
        <mxCell id="-nGJAd8UvBnzbiaQS2O5-6" value="" style="edgeStyle=orthogonalEdgeStyle;rounded=0;orthogonalLoop=1;jettySize=auto;html=1;" edge="1" parent="1" source="-nGJAd8UvBnzbiaQS2O5-4" target="-nGJAd8UvBnzbiaQS2O5-5">
          <mxGeometry relative="1" as="geometry" />
        </mxCell>
        <mxCell id="-nGJAd8UvBnzbiaQS2O5-4" value="Lightning Page Components" style="rounded=0;whiteSpace=wrap;html=1;" vertex="1" parent="1">
          <mxGeometry x="40" y="160" width="120" height="40" as="geometry" />
        </mxCell>
        <mxCell id="-nGJAd8UvBnzbiaQS2O5-5" value="For each role, have a separate register/login page" style="whiteSpace=wrap;html=1;rounded=0;" vertex="1" parent="1">
          <mxGeometry x="40" y="270" width="120" height="60" as="geometry" />
        </mxCell>
        <mxCell id="-nGJAd8UvBnzbiaQS2O5-7" value="Homepage" style="rounded=0;whiteSpace=wrap;html=1;" vertex="1" parent="1">
          <mxGeometry x="240" y="160" width="120" height="40" as="geometry" />
        </mxCell>
      </root>
    </mxGraphModel>
  </diagram>
</mxfile>
